<svg width="120" height="213" viewBox="0 0 120 213" fill="none" xmlns="http://www.w3.org/2000/svg">
    <path d="M70.3692 198.625V200.125H73.3692V198.625H70.3692ZM58.6791 11.4119C59.2231 10.7871 59.1577 9.83964 58.533 9.29558C57.9083 8.75153 56.9608 8.81693 56.4167 9.44167L58.6791 11.4119ZM73.3098 25.2402C73.5405 24.4446 73.0826 23.6125 72.2869 23.3818C71.4912 23.1511 70.6592 23.6091 70.4285 24.4048L73.3098 25.2402ZM79.8387 9.42929C79.2878 8.81058 78.3397 8.75559 77.721 9.30648C77.1023 9.85737 77.0473 10.8055 77.5982 11.4242L79.8387 9.42929ZM115.391 38.7115C115.305 37.8875 114.567 37.2892 113.743 37.3752C112.919 37.4612 112.321 38.1988 112.407 39.0227L115.391 38.7115ZM102.511 9.8307C102.182 9.07049 101.298 8.72109 100.538 9.05028C99.7781 9.37948 99.4287 10.2626 99.7579 11.0228L102.511 9.8307ZM59.0471 45.8402C59.0199 45.0122 58.3266 44.363 57.4987 44.3902C56.6707 44.4174 56.0215 45.1107 56.0487 45.9386L59.0471 45.8402ZM77.7132 39.0759C77.8285 38.2555 77.2569 37.497 76.4366 37.3817C75.6162 37.2664 74.8577 37.838 74.7424 38.6583L77.7132 39.0759ZM72.9818 4.76153C73.5374 4.14701 73.4896 3.19847 72.8751 2.6429C72.2606 2.08732 71.3121 2.13511 70.7565 2.74962L72.9818 4.76153ZM86.1297 1.04746C85.6036 0.407511 84.6583 0.31519 84.0184 0.841261C83.3784 1.36733 83.2861 2.31258 83.8122 2.95254L86.1297 1.04746ZM92.9707 106.983L94.2469 107.772L92.9707 106.983ZM94.4268 79.2545C94.6258 78.4503 94.1351 77.6371 93.3309 77.4381C92.5267 77.2392 91.7135 77.7299 91.5146 78.534L94.4268 79.2545ZM38.5 71.8719C38.5 71.0435 37.8284 70.3719 37 70.3719C36.1716 70.3719 35.5 71.0435 35.5 71.8719H38.5ZM119.714 75.0379C119.912 74.2333 119.419 73.4212 118.615 73.224C117.81 73.0268 116.998 73.5192 116.801 74.3238L119.714 75.0379ZM73.1341 131.809C66.285 121.062 56.1958 84.2619 73.3098 25.2402L70.4285 24.4048C53.1715 83.9196 63.1321 121.697 70.6042 133.421L73.1341 131.809ZM73.3276 132.966C75.8617 122.431 79.4554 104.85 82.2528 85.4282L79.2835 85.0005C76.4995 104.328 72.9235 121.818 70.4108 132.264L73.3276 132.966ZM81.1474 86.6656C81.8218 86.4894 82.4819 86.0875 83.0834 85.6289C83.7074 85.153 84.3747 84.5327 85.0685 83.8006C86.4574 82.335 88.0318 80.3365 89.6736 77.9289C92.9601 73.1093 96.5862 66.5476 99.5968 59.0911C105.589 44.2494 109.29 25.4858 102.511 9.8307L99.7579 11.0228C106.055 25.5637 102.707 43.3746 96.815 57.968C93.8833 65.2291 90.358 71.6002 87.195 76.2387C85.612 78.5602 84.137 80.4222 82.8909 81.7371C82.2672 82.3953 81.7207 82.8953 81.2642 83.2434C80.7852 83.6087 80.4983 83.7345 80.3889 83.7631L81.1474 86.6656ZM72.6853 131.356C70.4735 129.922 66.9752 126.177 63.147 120.134C59.3504 114.14 55.3114 106.016 51.9588 95.975L49.1133 96.9251C52.5392 107.186 56.6804 115.532 60.6127 121.739C64.5132 127.897 68.2921 132.083 71.053 133.873L72.6853 131.356ZM51.7918 97.2704C53.3303 94.9152 55.3769 89.6273 56.9229 81.2377C58.4783 72.797 59.5483 61.1015 59.0471 45.8402L56.0487 45.9386C56.5438 61.0137 55.484 72.4918 53.9726 80.694C52.4517 88.9472 50.4941 93.7714 49.2803 95.6297L51.7918 97.2704ZM82.2528 85.4282C82.7529 81.9564 83.2276 78.4252 83.6664 74.8643L80.6889 74.4974C80.2528 78.0367 79.7808 81.5476 79.2835 85.0005L82.2528 85.4282ZM82.6537 73.2584C81.6278 72.915 79.4375 71.0472 77.9775 65.6352C76.5434 60.3189 75.9139 51.8767 77.7132 39.0759L74.7424 38.6583C72.9093 51.6996 73.5064 60.5791 75.0811 66.4165C76.63 72.1583 79.2307 75.2763 81.7015 76.1033L82.6537 73.2584ZM51.9588 95.975C48.6207 85.9772 45.9657 74.0874 44.9057 60.5194L41.9148 60.7531C42.9946 74.5734 45.7004 86.7035 49.1133 96.9251L51.9588 95.975ZM44.9057 60.5194C44.5342 55.7654 42.0113 30.5513 58.6791 11.4119L56.4167 9.44167C38.838 29.6271 41.5489 56.07 41.9148 60.7531L44.9057 60.5194ZM44.8804 60.9339C45.8592 56.0996 48.8837 46.4654 53.6916 35.7967C58.4985 25.1304 65.0335 13.5532 72.9818 4.76153L70.7565 2.74962C62.5156 11.8649 55.8283 23.7538 50.9566 34.5641C46.0859 45.3719 42.9755 55.2246 41.9401 60.3386L44.8804 60.9339ZM83.6664 74.8643C85.1475 62.8429 86.2199 50.4709 86.4706 38.8996L83.4713 38.8346C83.2235 50.2758 82.1618 62.5424 80.6889 74.4974L83.6664 74.8643ZM86.4706 38.8996C86.5363 35.8642 86.5381 30.413 85.7225 24.8101C84.9164 19.2724 83.2733 13.2867 79.8387 9.42929L77.5982 11.4242C80.4161 14.5891 81.9643 19.8181 82.7538 25.2422C83.5339 30.601 83.5357 35.8589 83.4713 38.8346L86.4706 38.8996ZM85.5884 40.2341C89.428 38.4998 93.7707 33.7746 95.0336 26.9383C96.3105 20.026 94.4216 11.1344 86.1297 1.04746L83.8122 2.95254C91.6837 12.5281 93.1632 20.5485 92.0835 26.3934C90.9897 32.3143 87.2508 36.1914 84.3535 37.5001L85.5884 40.2341ZM72.8223 133.773C79.9345 127.92 87.5594 118.598 94.2469 107.772L91.6945 106.195C85.1118 116.852 77.6894 125.882 70.916 131.457L72.8223 133.773ZM94.2469 107.772C100.173 98.178 105.93 85.6101 109.97 73.1353C113.997 60.697 116.377 48.1694 115.391 38.7115L112.407 39.0227C113.328 47.8548 111.101 59.9044 107.116 72.2111C103.142 84.4815 97.4814 96.8267 91.6945 106.195L94.2469 107.772ZM94.2958 106.28C92.9482 103.741 90.6885 94.3666 94.4268 79.2545L91.5146 78.534C87.6706 94.0734 89.8339 104.272 91.6457 107.686L94.2958 106.28ZM73.3692 145.606V132.615H70.3692V145.606H73.3692ZM72.8216 144.447C54.7337 129.58 38.5 104.7 38.5 71.8719H35.5C35.5 105.756 52.2675 131.436 70.9167 146.765L72.8216 144.447ZM73.3692 198.625V145.606H70.3692V198.625H73.3692ZM72.874 146.72C81.6483 138.803 109.004 118.738 119.714 75.0379L116.801 74.3238C106.341 116.999 79.7321 136.492 70.8643 144.492L72.874 146.72Z"
          fill="#281E1F"/>
    <path d="M68.5306 200.162L69.7441 201.044L71.5074 198.617L70.2939 197.735L68.5306 200.162ZM9.66679 162.502C9.56668 161.679 8.81887 161.094 7.99652 161.194C7.17416 161.294 6.58867 162.042 6.68878 162.864L9.66679 162.502ZM17.7123 159.64C17.2453 158.956 16.312 158.78 15.6278 159.247C14.9435 159.714 14.7674 160.647 15.2344 161.332L17.7123 159.64ZM13.6549 153.257C12.8437 153.425 12.3221 154.219 12.49 155.03C12.6579 155.841 13.4516 156.363 14.2628 156.195L13.6549 153.257ZM34.2195 147.684C33.4926 147.287 32.5812 147.554 32.1838 148.281C31.7865 149.008 32.0536 149.919 32.7805 150.316L34.2195 147.684ZM20.2857 144.815C19.4651 144.701 18.7078 145.275 18.5942 146.095C18.4806 146.916 19.0537 147.673 19.8743 147.787L20.2857 144.815ZM19.8113 169.283C19.1219 168.823 18.1906 169.01 17.7312 169.699C17.2718 170.388 17.4583 171.32 18.1476 171.779L19.8113 169.283ZM23.0176 160.911C22.4404 160.317 21.4908 160.303 20.8965 160.88C20.3022 161.457 20.2882 162.407 20.8654 163.001L23.0176 160.911ZM11.5486 155.67C11.4639 154.846 10.7271 154.247 9.90304 154.332C9.07896 154.417 8.47963 155.153 8.56439 155.977L11.5486 155.67ZM12.8543 149.031C12.037 149.167 11.4843 149.939 11.6197 150.756C11.7551 151.574 12.5274 152.126 13.3447 151.991L12.8543 149.031ZM47.2613 170.737L48.6981 170.307L47.2613 170.737ZM39.903 163.618C39.4042 162.956 38.4636 162.825 37.8022 163.323C37.1408 163.822 37.0091 164.763 37.5079 165.424L39.903 163.618ZM22.1642 182.79C21.494 182.303 20.5559 182.452 20.069 183.122C19.582 183.792 19.7306 184.73 20.4008 185.217L22.1642 182.79ZM45.5225 153.178C45.0219 152.518 44.081 152.389 43.4209 152.889C42.7608 153.39 42.6315 154.331 43.132 154.991L45.5225 153.178ZM49.2491 182.842C44.5491 183.021 30.8863 178.943 17.7123 159.64L15.2344 161.332C28.7801 181.179 43.3078 186.07 49.3633 185.839L49.2491 182.842ZM50.4967 183.428C47.957 180.114 43.5581 174.844 38.3788 169.465L36.2179 171.547C41.3172 176.841 45.6427 182.027 48.1156 185.253L50.4967 183.428ZM38.6682 171.117C38.9871 170.402 38.9908 169.459 38.9258 168.639C38.8538 167.733 38.6647 166.649 38.3712 165.465C37.7834 163.093 36.7486 160.207 35.2624 157.354C32.3343 151.733 27.4094 145.801 20.2857 144.815L19.8743 147.787C25.5187 148.568 29.8095 153.38 32.6018 158.74C33.9758 161.377 34.9274 164.04 35.4593 166.186C35.7256 167.261 35.8797 168.177 35.9352 168.876C35.9975 169.662 35.9129 169.93 35.9285 169.895L38.6682 171.117ZM48.6421 182.995C47.7488 183.436 45.7929 183.912 42.9685 184.011C40.1916 184.109 36.7028 183.838 32.818 182.897L32.1122 185.813C36.2622 186.818 40.0239 187.117 43.0738 187.01C46.0762 186.904 48.5234 186.4 49.9702 185.685L48.6421 182.995ZM33.9131 183.964C33.5607 182.66 32.398 180.585 30.2188 178.095C28.0054 175.565 24.6636 172.516 19.8113 169.283L18.1476 171.779C22.8077 174.884 25.9427 177.764 27.9612 180.07C30.0138 182.416 30.8377 184.083 31.0171 184.747L33.9131 183.964ZM38.3788 169.465C37.4523 168.503 36.5003 167.537 35.5289 166.578L33.4208 168.712C34.3731 169.653 35.3076 170.601 36.2179 171.547L38.3788 169.465ZM33.5344 166.477C33.4101 166.577 32.5811 167.004 30.7495 166.423C28.9539 165.854 26.3522 164.345 23.0176 160.911L20.8654 163.001C24.4102 166.651 27.4194 168.514 29.8429 169.283C32.2302 170.039 34.2281 169.769 35.4152 168.814L33.5344 166.477ZM32.818 182.897C28.9517 181.961 24.7004 180.364 20.3718 177.815L18.8495 180.4C23.4475 183.108 27.9763 184.812 32.1122 185.813L32.818 182.897ZM20.3718 177.815C18.835 176.91 10.8845 172.504 9.66679 162.502L6.68878 162.864C8.09745 174.436 17.3105 179.494 18.8495 180.4L20.3718 177.815ZM20.7602 178.144C19.6302 176.796 17.5651 173.611 15.6514 169.492C13.7427 165.384 12.0424 160.471 11.5486 155.67L8.56439 155.977C9.10413 161.225 10.9408 166.474 12.9308 170.756C14.9158 175.028 17.111 178.461 18.4611 180.072L20.7602 178.144ZM35.5289 166.578C32.2516 163.341 28.7431 160.169 25.2427 157.48L23.4152 159.859C26.7882 162.45 30.2016 165.533 33.4208 168.712L35.5289 166.578ZM25.2427 157.48C24.3155 156.768 22.59 155.511 20.5663 154.532C18.5876 153.575 16.0704 152.757 13.6549 153.257L14.2628 156.195C15.6936 155.899 17.4638 156.364 19.2598 157.232C21.0106 158.08 22.547 159.192 23.4152 159.859L25.2427 157.48ZM25.7716 159.081C26.3449 157.067 26.093 154.05 24.0869 151.755C22.0104 149.379 18.3715 148.117 12.8543 149.031L13.3447 151.991C18.2303 151.181 20.6625 152.396 21.8283 153.729C23.0644 155.143 23.2258 157.067 22.8863 158.259L25.7716 159.081ZM50.805 184.401C50.9689 180.315 50.1907 175.286 48.6981 170.307L45.8244 171.168C47.2518 175.93 47.9544 180.618 47.8074 184.28L50.805 184.401ZM48.6981 170.307C47.3798 165.908 45.4163 161.19 42.9862 157.124C40.5766 153.092 37.6114 149.538 34.2195 147.684L32.7805 150.316C35.4807 151.793 38.1074 154.808 40.4111 158.663C42.6943 162.483 44.5654 166.967 45.8244 171.168L48.6981 170.307ZM47.3342 169.239C46.5829 169.202 43.3675 168.211 39.903 163.618L37.5079 165.424C41.3092 170.464 45.2632 172.142 47.1883 172.235L47.3342 169.239ZM54.1449 186.002L50.1878 183.127L48.4245 185.554L52.3815 188.429L54.1449 186.002ZM52.742 185.809C43.4203 189.263 31.7859 189.781 22.1642 182.79L20.4008 185.217C31.0991 192.99 43.8767 192.293 53.7844 188.622L52.742 185.809ZM70.2939 197.735L54.1449 186.002L52.3815 188.429L68.5306 200.162L70.2939 197.735ZM54.7632 187.211C54.7482 182.25 56.1426 167.184 45.5225 153.178L43.132 154.991C53.0398 168.057 51.7475 182.028 51.7632 187.22L54.7632 187.211Z"
          fill="black" fill-opacity="0.1"/>
</svg>
